<svg width="25" height="25" viewBox="0 0 25 25" fill="none" xmlns="http://www.w3.org/2000/svg">
<path d="M3.79559 2.71398C3.27491 2.92922 2.41531 1.80206 2.14911 2.20004C1.54985 3.09879 2.94886 7.89823 2.97231 8.16003C3.29481 11.7779 2.94418 15.4309 3.24674 19.0531C3.26316 19.2429 3.03682 22.9055 3.24674 22.9573C4.36903 23.2376 8.42903 22.0507 9.55719 21.9303C11.7549 21.6948 20.3978 21.8767 21.9024 21.3136C22.8828 20.9464 22.1756 11.1954 22.1756 10.2158C22.1756 8.95601 23.5782 3.88946 22.7244 2.61118C22.1111 1.69223 19.9709 2.73857 18.6094 2.61118C14.0464 2.18421 6.89392 1.43131 3.79559 2.71398Z" stroke="#F6F6FB" stroke-width="4" stroke-miterlimit="10" stroke-linecap="round" stroke-linejoin="round"/>
</svg>
