<svg width="272" height="309" viewBox="0 0 272 309" fill="none" xmlns="http://www.w3.org/2000/svg">
<g clip-path="url(#clip0_593_495)">
<path d="M73.3774 138.142C72.1935 139.446 68.2286 143.983 68.3429 150.576C68.4538 157.125 72.7362 161.633 74.3014 163.289C79.7216 168.994 86.4212 169.971 88.2571 170.216C89.8588 170.428 93.2594 170.873 96.9894 169.735C98.8118 169.177 104.909 166.967 112.275 152.277C119.279 138.318 121.976 130.958 119.42 127.767C116.888 124.611 108.039 126.621 90.3489 130.648C80.9814 132.779 76.8338 134.305 73.3697 138.136L73.3774 138.142Z" fill="#FEE59D" stroke="#E1BD81" stroke-linecap="round" stroke-linejoin="round"/>
<path d="M86.3638 130.22C85.9899 130.25 85.2697 130.293 84.3041 130.255C83.208 130.212 73.1613 129.64 67.1723 121.164C62.0968 113.976 62.144 104.243 65.512 97.4879C70.8081 86.8797 83.9386 84.2958 93.7513 87.645C99.0702 89.4567 103.328 95.6531 111.966 107.66C119.447 118.058 123.16 123.313 121.958 126.117C119.78 131.191 107.751 128.815 86.3644 130.228L86.3638 130.22Z" fill="#FEE59D" stroke="#E1BD81" stroke-linecap="round" stroke-linejoin="round"/>
<path d="M120.827 129.624C116.905 128.634 119.418 119.776 111.529 106.457C106.518 97.9897 103.1 97.51 101.308 90.6533C98.5267 80.0318 104.054 70.9542 104.342 70.4896C105.305 68.9576 110.359 60.9313 119.937 59.8981C128.432 58.9804 136.324 64.0105 140.167 70.4427C144.652 77.9457 142.821 85.9968 140.358 96.1108C136.387 112.433 126.676 131.089 120.834 129.616L120.827 129.624Z" fill="#FEE59D" stroke="#E1BD81" stroke-linecap="round" stroke-linejoin="round"/>
<path d="M106.532 189.27C105.496 187.898 103.146 184.387 102.851 179.43C102.424 172.182 106.757 167 107.569 166.023C112.45 160.182 119.297 159.193 132.219 157.538C146.646 155.69 154.354 154.705 162.74 159.124C165.663 160.664 173.898 165.001 175.477 173.626C176.694 180.254 173.266 185.537 172.859 186.142C169.995 190.417 165.964 191.955 160.465 194.052C154.04 196.506 148.829 197.045 142.661 197.647C134.582 198.43 130.03 198.873 123.85 197.702C118.126 196.618 111.087 195.283 106.532 189.27Z" fill="white" stroke="#3B4559" stroke-width="3" stroke-linecap="round" stroke-linejoin="round"/>
<path d="M150.048 173.907C149.895 175.439 148.626 176.575 147.611 177.728C146.588 178.881 145.715 180.543 146.453 181.896C146.987 182.874 148.207 183.29 149.321 183.288C150.436 183.286 151.524 182.96 152.637 182.857C154.756 182.651 156.941 183.287 158.622 184.579C159.701 185.405 159.959 185.819 161.129 186.239C161.583 186.406 162.751 186.804 164.194 186.479C164.67 186.369 166.043 186.064 166.823 184.959C167.903 183.439 167.447 181 166.338 179.525C165.003 177.757 162.284 177.518 160.935 175.758C159.965 174.489 159.958 172.767 159.531 171.223C159.041 169.438 157.85 167.76 156.125 167.087C154.467 166.445 152.061 167.035 150.962 168.499C149.791 170.062 150.225 172.141 150.041 173.907L150.048 173.907Z" fill="#56647E"/>
<path d="M110.754 106.352C108.029 103.942 104.251 103.035 100.617 103.022C96.9833 103.008 93.3989 103.794 89.8044 104.364C87.8822 104.669 85.9548 104.91 84.0228 105.093C86.0078 107.114 87.0943 109.843 88.7676 112.127C92.1451 116.721 97.9133 119.265 103.614 119.337" fill="white"/>
<path d="M110.754 106.352C108.029 103.942 104.251 103.035 100.617 103.022C96.9833 103.008 93.3989 103.794 89.8044 104.364C87.8822 104.669 85.9548 104.91 84.0228 105.093C86.0078 107.114 87.0943 109.843 88.7676 112.127C92.1451 116.721 97.9133 119.265 103.614 119.337" stroke="#3A4559" stroke-width="3" stroke-linecap="round" stroke-linejoin="round"/>
<path d="M106.348 112.799C102.942 110.654 101.093 110.251 97.0688 110.24" stroke="#3A4559" stroke-width="3" stroke-linecap="round" stroke-linejoin="round"/>
<path d="M125.124 180.234C122.699 179.776 119.205 179.057 114.997 178.025C108.737 176.477 106.185 175.515 104.613 176.936C102.871 178.502 103.588 181.861 103.763 182.694C104.47 186.018 106.811 187.959 109.879 190.501C112.034 192.283 113.859 193.759 116.696 194.3C118.107 194.57 120.48 195.018 122.062 193.719C123.339 192.668 124.133 191.193 123.858 187.125C123.693 184.692 123.552 181.844 125.125 180.241L125.124 180.234Z" fill="#56647E"/>
<path d="M138.555 159.218C144.401 171.245 151.382 175.928 153.883 177.437C157.267 179.483 162.224 182.38 168.214 181.359C173.425 180.464 176.628 177.074 178.269 175.329C179.829 173.669 185.188 167.465 184.048 159.354C183.333 154.301 180.447 150.977 177.738 147.95C175.091 144.984 170.633 141.359 155.94 134.708C143.536 129.09 137.327 126.285 134.283 128.302C127.932 132.509 134.374 150.634 138.548 159.219L138.555 159.218Z" fill="#FEE59D" stroke="#E1BD81" stroke-linecap="round" stroke-linejoin="round"/>
<path d="M142.358 130.914C146.17 131.804 148.221 122.881 161.259 114.695C169.542 109.494 172.684 110.604 177.455 105.38C184.855 97.2819 184.445 86.8111 184.417 86.2777C184.318 84.4976 183.812 75.171 176.138 69.9643C169.327 65.34 160.223 66.234 153.902 70.1703C146.525 74.7628 144.27 82.6669 141.581 92.6687C137.234 108.811 136.679 129.587 142.357 130.907L142.358 130.914Z" fill="#FEE59D" stroke="#E1BD81" stroke-linecap="round" stroke-linejoin="round"/>
<path d="M134.643 129.728C137.63 131.611 133.201 138.581 136.223 152.137C138.142 160.749 140.852 162.067 140.522 168.442C140.016 178.32 133.021 184.685 132.662 185.003C131.46 186.069 125.139 191.649 116.911 190.011C109.616 188.56 104.4 182.151 102.914 175.595C101.181 167.952 104.834 161.5 109.552 153.435C117.167 140.427 130.177 126.915 134.635 129.729L134.643 129.728Z" fill="#FEE59D" stroke="#E1BD81" stroke-linecap="round" stroke-linejoin="round"/>
<path d="M170.637 105.085C174.259 103.869 180.793 101.776 188.478 104.405C189.378 104.709 198.288 107.899 202.304 116.221C205.115 122.056 203.941 127.115 203.166 130.456C202.446 133.576 201.352 138.267 197.347 141.403C194.691 143.483 190.627 144.973 174.601 143.467C157.955 141.902 149.635 141.119 147.215 137.722C141.369 129.495 153.73 110.765 170.629 105.086L170.637 105.085Z" fill="#FEE59D" stroke="#E1BD81" stroke-linecap="round" stroke-linejoin="round"/>
<path d="M155.733 101.694C157.955 98.9827 161.408 97.5486 164.865 96.9827C168.323 96.4169 171.848 96.6129 175.35 96.6082C177.224 96.6032 179.093 96.5407 180.958 96.4206C179.377 98.6462 178.766 101.41 177.52 103.84C175.009 108.724 169.917 112.027 164.507 112.966" fill="white"/>
<path d="M155.733 101.694C157.955 98.9827 161.408 97.5486 164.865 96.9827C168.323 96.4169 171.848 96.6129 175.35 96.6082C177.224 96.6032 179.093 96.5407 180.958 96.4206C179.377 98.6462 178.766 101.41 177.52 103.84C175.009 108.724 169.917 112.027 164.507 112.966" stroke="#3A4559" stroke-width="3" stroke-linecap="round" stroke-linejoin="round"/>
<path d="M160.55 107.73C163.457 105.167 167.097 103.442 170.918 102.811" stroke="#3B4559" stroke-width="3" stroke-linecap="round" stroke-linejoin="round"/>
<path d="M135.722 97.2341C128.466 97.1768 123.037 99.1453 120.962 99.9844C119.167 100.707 115.83 102.052 112.767 104.563C108.257 108.26 106.471 112.623 105.63 114.688C103.784 119.208 103.71 122.812 103.567 129.613C103.489 133.268 103.515 135.937 104.314 138.964C105.28 142.629 106.627 144.461 106.967 144.912C108.876 147.423 111.197 148.671 112.383 149.293C120.155 153.37 133.037 152.471 136.494 152.18C139.032 151.97 154.988 150.514 161.225 144.702C164.094 142.026 165.821 138.834 165.821 138.834C166.205 138.115 166.986 136.656 167.517 134.702C167.914 133.23 168.329 130.909 167.715 126.304C167.321 123.367 166.831 119.686 164.846 115.306C163.537 112.421 160.848 106.396 154.183 102.042C146.968 97.3343 139.604 97.2713 135.722 97.2412L135.722 97.2341Z" fill="white" stroke="#3A4559" stroke-width="3" stroke-linecap="round" stroke-linejoin="round"/>
<path d="M147.514 99.8967C146.711 101.344 145.647 103.245 144.355 105.47C143.357 107.193 142.655 108.465 141.473 108.523C140.738 108.56 140.034 108.168 139.322 107.949C137.712 107.463 135.933 107.923 134.685 109.152C133.88 109.948 133.901 110.12 133.175 110.728C131.413 112.215 128.386 112.457 126.336 111.079C123.492 109.178 124.803 105.932 122.057 104.436C119.166 102.857 114.843 105.265 114.624 104.697C114.478 104.317 116.434 103.263 117.641 102.61C118.925 101.921 120.057 101.425 121.038 101.021C124.548 99.5675 127.415 98.9547 128.677 98.7164C129.604 98.541 130.469 98.4139 131.286 98.3124C131.537 98.2851 134.118 97.9848 136.867 98.0619C141.654 98.1933 146.008 99.4307 147.528 99.8884L147.514 99.8967Z" fill="#56647E"/>
<path d="M123.049 129.359C124.745 129.224 125.98 127.372 125.809 125.222C125.637 123.073 124.123 121.441 122.427 121.576C120.732 121.712 119.496 123.564 119.668 125.713C119.84 127.862 121.354 129.495 123.049 129.359Z" fill="#3B4559"/>
<path d="M135.539 145.474C143.096 144.87 148.933 140.757 148.576 136.288C148.219 131.819 141.803 128.686 134.245 129.29C126.688 129.894 120.851 134.006 121.208 138.475C121.565 142.944 127.981 146.078 135.539 145.474Z" fill="#E2B1D2" stroke="#3A4559" stroke-width="3" stroke-linecap="round" stroke-linejoin="round"/>
<path d="M138.799 139.719C139.771 139.641 140.466 138.393 140.349 136.931C140.232 135.469 139.348 134.347 138.375 134.425C137.403 134.503 136.708 135.751 136.825 137.213C136.942 138.675 137.826 139.797 138.799 139.719Z" fill="#E08EBC"/>
<path d="M130.335 140.395C131.308 140.317 132.002 139.069 131.885 137.607C131.768 136.146 130.885 135.024 129.912 135.101C128.939 135.179 128.245 136.427 128.361 137.889C128.478 139.351 129.362 140.473 130.335 140.395Z" fill="#E08EBC"/>
<path d="M145.237 127.463C146.933 127.328 148.168 125.475 147.997 123.326C147.825 121.177 146.311 119.545 144.615 119.68C142.92 119.816 141.684 121.668 141.856 123.817C142.028 125.966 143.542 127.599 145.237 127.463Z" fill="#3B4559"/>
</g>
<path d="M51.3875 19.5911C44.6709 23.1086 8.73913 17.7562 5.52436 23.6789C-1.71024 37.0525 7.63826 104.161 8.14744 107.891C10.6422 159.178 12.6527 203.986 17.4497 257.444C17.8111 260.149 18.4948 304.932 21.3081 305.5C36.3513 308.578 86.2324 303.855 101.048 301.19C129.909 295.984 244.255 291.379 263.708 282.057C276.384 275.979 259.618 136.897 258.872 122.866C257.913 104.82 255.368 24.657 243.114 7.05935C234.31 -5.59198 204.329 12.3207 186.241 11.6319C125.62 9.32295 96.8084 19.8191 51.3875 19.5911Z" stroke="#282830" stroke-width="4" stroke-miterlimit="10" stroke-linecap="round" stroke-linejoin="round"/>
<path d="M237.438 64.9765C237.467 57.7714 238.776 33.644 234.337 31.4005C224.313 26.3525 174.053 34.5222 171.26 34.9686C132.845 37.8001 99.2827 40.1498 59.2441 44.7132C57.2186 45.0312 23.6735 46.4067 23.251 48.4823C20.9584 59.5815 24.5387 96.0936 26.5479 106.914C30.4724 127.991 34.0205 211.812 41.0198 225.905C45.5835 235.088 149.749 220.071 160.259 219.25C173.775 218.195 227.652 216.382 240.823 207.046C250.292 200.339 243.016 177.068 243.516 163.781C240.165 119.486 237.307 98.3122 237.438 64.9765Z" stroke="#282830" stroke-width="4" stroke-miterlimit="10" stroke-linecap="round" stroke-linejoin="round"/>
<defs>
<clipPath id="clip0_593_495">
<rect width="140.08" height="140.636" fill="white" transform="translate(59.2188 64.3809) rotate(-4.56883)"/>
</clipPath>
</defs>
</svg>
