<svg width="272" height="309" viewBox="0 0 272 309" fill="none" xmlns="http://www.w3.org/2000/svg">
<g clip-path="url(#clip0_637_219)">
<path d="M74.3774 139.142C73.1935 140.446 69.2286 144.983 69.3429 151.576C69.4538 158.125 73.7362 162.633 75.3014 164.289C80.7216 169.994 87.4212 170.971 89.2571 171.216C90.8588 171.428 94.2594 171.873 97.9894 170.735C99.8118 170.177 105.909 167.967 113.275 153.277C120.279 139.318 122.976 131.958 120.42 128.767C117.888 125.611 109.039 127.621 91.3489 131.648C81.9814 133.779 77.8338 135.305 74.3697 139.136L74.3774 139.142Z" fill="#FEE59D" stroke="#E1BD81" stroke-linecap="round" stroke-linejoin="round"/>
<path d="M87.3638 131.22C86.9899 131.25 86.2697 131.293 85.3041 131.255C84.208 131.212 74.1613 130.639 68.1723 122.164C63.0968 114.976 63.144 105.243 66.512 98.4879C71.8081 87.8796 84.9386 85.2957 94.7513 88.645C100.07 90.4567 104.328 96.6531 112.966 108.66C120.447 119.058 124.16 124.313 122.958 127.117C120.78 132.191 108.751 129.815 87.3644 131.228L87.3638 131.22Z" fill="#FEE59D" stroke="#E1BD81" stroke-linecap="round" stroke-linejoin="round"/>
<path d="M121.827 130.624C117.905 129.634 120.418 120.776 112.529 107.457C107.518 98.9897 104.1 98.51 102.308 91.6533C99.5267 81.0318 105.054 71.9542 105.342 71.4896C106.305 69.9576 111.359 61.9313 120.937 60.898C129.432 59.9803 137.324 65.0105 141.167 71.4427C145.652 78.9456 143.821 86.9968 141.358 97.1107C137.387 113.433 127.676 132.089 121.834 130.616L121.827 130.624Z" fill="#FEE59D" stroke="#E1BD81" stroke-linecap="round" stroke-linejoin="round"/>
<path d="M107.532 190.27C106.496 188.898 104.146 185.387 103.851 180.43C103.424 173.182 107.757 168 108.569 167.023C113.45 161.182 120.297 160.193 133.219 158.538C147.646 156.69 155.354 155.705 163.74 160.124C166.663 161.664 174.898 166.001 176.477 174.626C177.694 181.254 174.266 186.537 173.859 187.142C170.995 191.417 166.964 192.955 161.465 195.052C155.04 197.506 149.829 198.045 143.661 198.647C135.582 199.43 131.03 199.873 124.85 198.702C119.126 197.618 112.087 196.283 107.532 190.27Z" fill="white" stroke="#3B4559" stroke-width="3" stroke-linecap="round" stroke-linejoin="round"/>
<path d="M151.048 174.907C150.895 176.439 149.626 177.575 148.611 178.728C147.588 179.881 146.715 181.543 147.453 182.896C147.987 183.874 149.207 184.29 150.321 184.288C151.436 184.286 152.524 183.96 153.637 183.857C155.756 183.651 157.941 184.287 159.622 185.579C160.701 186.405 160.959 186.819 162.129 187.239C162.583 187.405 163.751 187.804 165.194 187.479C165.67 187.369 167.043 187.064 167.823 185.959C168.903 184.439 168.447 182 167.338 180.525C166.003 178.757 163.284 178.518 161.935 176.758C160.965 175.489 160.958 173.767 160.531 172.223C160.041 170.438 158.85 168.76 157.125 168.087C155.467 167.445 153.061 168.035 151.962 169.498C150.791 171.061 151.225 173.141 151.041 174.907L151.048 174.907Z" fill="#56647E"/>
<path d="M111.754 107.352C109.029 104.942 105.251 104.035 101.617 104.022C97.9833 104.008 94.3989 104.794 90.8044 105.364C88.8822 105.669 86.9548 105.91 85.0228 106.093C87.0078 108.114 88.0943 110.843 89.7676 113.127C93.1451 117.721 98.9133 120.265 104.614 120.337" fill="white"/>
<path d="M111.754 107.352C109.029 104.942 105.251 104.035 101.617 104.022C97.9833 104.008 94.3989 104.794 90.8044 105.364C88.8822 105.669 86.9548 105.91 85.0228 106.093C87.0078 108.114 88.0943 110.843 89.7676 113.127C93.1451 117.721 98.9133 120.265 104.614 120.337" stroke="#3A4559" stroke-width="3" stroke-linecap="round" stroke-linejoin="round"/>
<path d="M107.348 113.799C103.942 111.654 102.093 111.251 98.0688 111.24" stroke="#3A4559" stroke-width="3" stroke-linecap="round" stroke-linejoin="round"/>
<path d="M126.124 181.234C123.699 180.777 120.205 180.057 115.997 179.025C109.737 177.477 107.185 176.515 105.613 177.936C103.871 179.502 104.588 182.861 104.763 183.694C105.47 187.018 107.811 188.959 110.879 191.501C113.034 193.283 114.859 194.759 117.696 195.3C119.107 195.57 121.48 196.018 123.062 194.719C124.339 193.668 125.133 192.193 124.858 188.125C124.693 185.692 124.552 182.844 126.125 181.241L126.124 181.234Z" fill="#56647E"/>
<path d="M139.555 160.218C145.401 172.245 152.382 176.928 154.883 178.437C158.267 180.483 163.224 183.38 169.214 182.359C174.425 181.464 177.628 178.074 179.269 176.329C180.829 174.669 186.188 168.465 185.048 160.354C184.333 155.301 181.447 151.977 178.738 148.95C176.091 145.984 171.633 142.359 156.94 135.708C144.536 130.09 138.327 127.285 135.283 129.302C128.932 133.509 135.374 151.634 139.548 160.219L139.555 160.218Z" fill="#FEE59D" stroke="#E1BD81" stroke-linecap="round" stroke-linejoin="round"/>
<path d="M143.358 131.914C147.17 132.804 149.221 123.881 162.259 115.695C170.542 110.494 173.684 111.604 178.455 106.38C185.855 98.2819 185.445 87.8111 185.417 87.2777C185.318 85.4976 184.812 76.1711 177.138 70.9643C170.327 66.34 161.223 67.234 154.902 71.1704C147.525 75.7629 145.27 83.667 142.581 93.6687C138.234 109.811 137.679 130.587 143.357 131.907L143.358 131.914Z" fill="#FEE59D" stroke="#E1BD81" stroke-linecap="round" stroke-linejoin="round"/>
<path d="M135.643 130.728C138.63 132.611 134.201 139.581 137.223 153.137C139.142 161.749 141.852 163.068 141.522 169.442C141.016 179.32 134.021 185.685 133.662 186.003C132.46 187.069 126.139 192.649 117.911 191.011C110.616 189.56 105.4 183.151 103.914 176.596C102.181 168.952 105.834 162.5 110.552 154.435C118.167 141.427 131.177 127.915 135.635 130.729L135.643 130.728Z" fill="#FEE59D" stroke="#E1BD81" stroke-linecap="round" stroke-linejoin="round"/>
<path d="M171.637 106.085C175.259 104.869 181.793 102.776 189.478 105.405C190.378 105.709 199.288 108.899 203.304 117.221C206.115 123.056 204.941 128.115 204.166 131.456C203.446 134.576 202.352 139.267 198.347 142.403C195.691 144.483 191.627 145.973 175.601 144.467C158.955 142.902 150.635 142.119 148.215 138.722C142.369 130.495 154.73 111.765 171.629 106.086L171.637 106.085Z" fill="#FEE59D" stroke="#E1BD81" stroke-linecap="round" stroke-linejoin="round"/>
<path d="M156.733 102.694C158.955 99.9827 162.408 98.5485 165.865 97.9827C169.323 97.4169 172.848 97.6129 176.35 97.6081C178.224 97.6032 180.093 97.5407 181.958 97.4206C180.377 99.6462 179.766 102.41 178.52 104.84C176.009 109.724 170.917 113.027 165.507 113.966" fill="white"/>
<path d="M156.733 102.694C158.955 99.9827 162.408 98.5485 165.865 97.9827C169.323 97.4169 172.848 97.6129 176.35 97.6081C178.224 97.6032 180.093 97.5407 181.958 97.4206C180.377 99.6462 179.766 102.41 178.52 104.84C176.009 109.724 170.917 113.027 165.507 113.966" stroke="#3A4559" stroke-width="3" stroke-linecap="round" stroke-linejoin="round"/>
<path d="M161.55 108.73C164.457 106.167 168.097 104.442 171.918 103.811" stroke="#3B4559" stroke-width="3" stroke-linecap="round" stroke-linejoin="round"/>
<path d="M136.722 98.234C129.466 98.1768 124.037 100.145 121.962 100.984C120.167 101.707 116.83 103.052 113.767 105.563C109.257 109.26 107.471 113.623 106.63 115.688C104.784 120.208 104.71 123.812 104.567 130.613C104.489 134.268 104.515 136.937 105.314 139.964C106.28 143.629 107.627 145.461 107.967 145.912C109.876 148.423 112.197 149.671 113.383 150.293C121.155 154.37 134.037 153.471 137.494 153.18C140.032 152.97 155.988 151.514 162.225 145.702C165.094 143.026 166.821 139.834 166.821 139.834C167.205 139.115 167.986 137.656 168.517 135.702C168.914 134.23 169.329 131.909 168.715 127.304C168.321 124.367 167.831 120.686 165.846 116.306C164.537 113.421 161.848 107.396 155.183 103.042C147.968 98.3343 140.604 98.2713 136.722 98.2412L136.722 98.234Z" fill="white" stroke="#3A4559" stroke-width="3" stroke-linecap="round" stroke-linejoin="round"/>
<path d="M148.514 100.897C147.711 102.344 146.647 104.245 145.355 106.47C144.357 108.193 143.655 109.465 142.473 109.523C141.738 109.56 141.034 109.168 140.322 108.949C138.712 108.463 136.933 108.923 135.685 110.152C134.88 110.948 134.901 111.12 134.175 111.728C132.413 113.215 129.386 113.457 127.336 112.079C124.492 110.178 125.803 106.932 123.057 105.436C120.166 103.857 115.843 106.265 115.624 105.697C115.478 105.317 117.434 104.263 118.641 103.61C119.925 102.921 121.057 102.425 122.038 102.021C125.548 100.568 128.415 99.9548 129.677 99.7164C130.604 99.541 131.469 99.4139 132.286 99.3125C132.537 99.2851 135.118 98.9848 137.867 99.0619C142.654 99.1934 147.008 100.431 148.528 100.888L148.514 100.897Z" fill="#56647E"/>
<path d="M124.049 130.359C125.745 130.224 126.98 128.372 126.809 126.222C126.637 124.073 125.123 122.441 123.427 122.576C121.732 122.712 120.496 124.564 120.668 126.713C120.84 128.862 122.354 130.495 124.049 130.359Z" fill="#3B4559"/>
<path d="M136.539 146.474C144.096 145.87 149.933 141.757 149.576 137.288C149.219 132.819 142.803 129.686 135.245 130.29C127.688 130.894 121.851 135.006 122.208 139.475C122.565 143.944 128.981 147.078 136.539 146.474Z" fill="#E2B1D2" stroke="#3A4559" stroke-width="3" stroke-linecap="round" stroke-linejoin="round"/>
<path d="M139.799 140.719C140.771 140.641 141.466 139.393 141.349 137.931C141.232 136.469 140.348 135.347 139.375 135.425C138.403 135.503 137.708 136.751 137.825 138.213C137.942 139.675 138.826 140.797 139.799 140.719Z" fill="#E08EBC"/>
<path d="M131.335 141.395C132.308 141.317 133.002 140.069 132.885 138.607C132.768 137.146 131.885 136.024 130.912 136.101C129.939 136.179 129.245 137.427 129.361 138.889C129.478 140.351 130.362 141.473 131.335 141.395Z" fill="#E08EBC"/>
<path d="M146.237 128.463C147.933 128.328 149.168 126.476 148.997 124.326C148.825 122.177 147.311 120.545 145.615 120.68C143.92 120.816 142.684 122.668 142.856 124.817C143.028 126.966 144.542 128.599 146.237 128.463Z" fill="#3B4559"/>
</g>
<path d="M51.3875 19.5911C44.6709 23.1086 8.73913 17.7562 5.52436 23.6789C-1.71024 37.0525 7.63826 104.161 8.14744 107.891C10.6422 159.178 12.6527 203.986 17.4497 257.444C17.8111 260.149 18.4948 304.932 21.3081 305.5C36.3513 308.578 86.2324 303.855 101.048 301.19C129.909 295.984 244.255 291.379 263.708 282.057C276.384 275.979 259.618 136.897 258.872 122.866C257.913 104.82 255.368 24.657 243.114 7.05932C234.31 -5.59201 204.329 12.3207 186.241 11.6319C125.62 9.32293 96.8084 19.8191 51.3875 19.5911Z" stroke="#F6F6FD" stroke-width="4" stroke-miterlimit="10" stroke-linecap="round" stroke-linejoin="round"/>
<path d="M237.438 64.9765C237.467 57.7714 238.776 33.644 234.337 31.4005C224.313 26.3525 174.053 34.5222 171.26 34.9686C132.845 37.8001 99.2827 40.1498 59.2441 44.7132C57.2186 45.0311 23.6735 46.4067 23.251 48.4823C20.9584 59.5815 24.5387 96.0936 26.5479 106.914C30.4724 127.991 34.0205 211.812 41.0198 225.905C45.5835 235.088 149.749 220.071 160.259 219.25C173.775 218.195 227.652 216.382 240.823 207.046C250.292 200.339 243.016 177.068 243.516 163.781C240.165 119.486 237.307 98.3122 237.438 64.9765Z" stroke="#F6F6FD" stroke-width="4" stroke-miterlimit="10" stroke-linecap="round" stroke-linejoin="round"/>
<defs>
<clipPath id="clip0_637_219">
<rect width="140.08" height="140.636" fill="white" transform="translate(60.2188 65.3809) rotate(-4.56883)"/>
</clipPath>
</defs>
</svg>
