<svg width="31" height="29" viewBox="0 0 31 29" fill="none" xmlns="http://www.w3.org/2000/svg">
<path d="M8.1012 13.9303C7.45046 12.6086 10.1134 16.0669 11.0868 17.166C11.7615 17.9275 12.9843 19.6962 13.8734 19.997C14.1532 20.0917 15.3379 17.9128 16.4609 16.3575C17.3869 15.0744 18.2333 13.727 19.2475 12.5148C22.4201 8.72348 26.4044 6.21988 29 2" stroke="#282830" stroke-width="4" stroke-miterlimit="10" stroke-linecap="round" stroke-linejoin="round"/>
<path d="M3.79559 6.71398C3.27491 6.92922 2.41531 5.80206 2.14911 6.20004C1.54985 7.09879 2.94886 11.8982 2.97231 12.16C3.29481 15.7779 2.94418 19.4309 3.24674 23.0531C3.26316 23.2429 3.03682 26.9055 3.24674 26.9573C4.36903 27.2376 8.42903 26.0507 9.55719 25.9303C11.7549 25.6948 20.3978 25.8767 21.9024 25.3136C22.8828 24.9464 22.1756 15.1954 22.1756 14.2158C22.1756 12.956 23.5782 7.88946 22.7244 6.61118C22.1111 5.69223 19.9709 6.73857 18.6094 6.61118C14.0464 6.18421 6.89392 5.43131 3.79559 6.71398Z" stroke="#282830" stroke-width="4" stroke-miterlimit="10" stroke-linecap="round" stroke-linejoin="round"/>
</svg>
