<svg width="259" height="155" viewBox="0 0 259 155" fill="none" xmlns="http://www.w3.org/2000/svg">
<path d="M117.53 2.20067L32.6183 14.0058C27.8483 14.6689 24.5462 18.8871 25.243 23.4274L31.0611 61.3419C31.7578 65.8822 36.1894 69.0252 40.9594 68.362L125.872 56.5569C130.642 55.8937 133.944 51.6755 133.247 47.1353L127.429 9.22075C126.732 4.68051 122.3 1.53751 117.53 2.20067Z" fill="#75B4D5" stroke="#033C5A" stroke-width="4" stroke-miterlimit="10"/>
<path d="M81.822 52.0703C92.1001 50.6413 99.2588 41.837 97.8115 32.4053C96.3641 22.9735 86.8588 16.486 76.5808 17.9149C66.3027 19.3438 59.144 28.1481 60.5913 37.5799C62.0387 47.0116 71.544 53.4992 81.822 52.0703Z" fill="white" stroke="#033C5A" stroke-width="6" stroke-miterlimit="10"/>
<path d="M47.1872 2.8045L33.2246 4.74567C31.0214 5.05198 29.4962 7.00034 29.818 9.09744C30.1398 11.1946 32.1868 12.6463 34.39 12.34L48.3525 10.3988C50.5558 10.0925 52.081 8.14413 51.7592 6.04703C51.4373 3.94992 49.3904 2.49819 47.1872 2.8045Z" fill="#73B3D5" stroke="#033C5A" stroke-width="4" stroke-miterlimit="10"/>
<path d="M222.722 99.2048C233.043 105.767 243.364 112.319 253.695 118.881C252.697 119.399 251.689 119.908 250.691 120.426C252.576 120.925 254.39 121.644 256.104 122.556C253.352 124.11 250.399 125.319 247.335 126.153C243.868 124.858 238.838 122.498 233.97 118.162C231.712 116.147 227.489 112.31 224.737 105.93C223.599 103.282 223.024 100.922 222.722 99.2144V99.2048Z" fill="white" stroke="#3A4559" stroke-width="4" stroke-linecap="round" stroke-linejoin="round"/>
<path d="M187.706 122.249C182.526 120.858 177.043 121.28 171.66 121.443C126.042 122.796 80.6162 104.453 35.6535 111.897C34.061 112.156 32.4282 112.482 31.128 113.384C27.8019 115.715 28.4268 120.992 31.3397 123.784C34.2525 126.575 38.5563 127.496 42.6383 128.158C53.826 129.962 65.1751 130.691 76.5039 131.42C83.8818 131.9 91.2597 132.37 98.6577 132.255C106.378 132.13 114.069 131.363 121.789 131.209C129.701 131.056 137.603 131.564 145.505 132.025C164.353 133.137 183.322 134.049 202.099 132.025C203.702 131.852 206.937 131.152 206.01 128.897C205.395 127.391 203.359 127.794 201.968 127.525C196.949 126.537 192.625 123.563 187.716 122.249H187.706Z" fill="white"/>
<path d="M34.5251 73.0141C31.4309 69.9633 26.9054 68.5627 22.4706 68.2077C18.0358 67.8527 13.5808 68.4379 9.13598 68.7641C6.75732 68.9368 4.37866 69.0423 2 69.0807C4.22747 71.6134 5.28577 74.8848 7.11007 77.6958C10.7889 83.3464 17.5822 86.8385 24.5368 87.4525C26.5123 83.2025 28.135 78.9238 31.3502 75.4317C32.2775 74.4244 33.2451 73.5801 34.5251 73.0141Z" fill="white" stroke="#3A4559" stroke-width="4" stroke-linecap="round" stroke-linejoin="round"/>
<path d="M30.0299 80.7658C26.0789 77.9549 21.2913 76.2281 16.3828 75.8347" stroke="#3A4559" stroke-width="4" stroke-linecap="round" stroke-linejoin="round"/>
<path d="M12.0684 111.676C16.1302 107.647 18.0856 103.867 19.1237 101.123C20.7867 96.72 20.0913 94.9644 22.1474 89.6112C23.9516 84.9199 26.2798 81.6101 27.3785 80.1615C28.9508 78.0797 32.4482 73.5515 38.7779 70.0306C44.9362 66.6057 50.4393 65.8094 57.4342 65.6272C65.2656 65.4257 66.7372 66.3946 71.5449 65.6272C75.9494 64.9268 79.1546 63.3055 83.8817 61.003C87.3791 59.305 86.3913 59.4585 92.7109 56.0335C100.794 51.6493 104.826 50.0759 107.9 49.0686C108.041 49.0206 109.896 48.3107 112.133 47.8118C127.715 44.3389 146.12 44.1567 161.914 46.3728C162.579 46.4687 163.244 46.5647 163.919 46.6798C179.552 49.1933 190.639 56.8874 194.852 60.0916C205.889 68.4765 211.11 78.1756 218.941 92.7003C224.273 102.582 224.132 103.618 227.367 109.23C231.278 116.003 239.21 124.446 257 130.864C256.617 131.343 256.103 131.9 255.427 132.437C254.268 133.368 253.099 133.866 252.272 134.145C253.724 135.248 255.165 136.351 256.617 137.454C252.393 137.944 246.427 138.471 239.24 138.529C230.461 138.606 223.265 138.663 214.668 136.629C209.396 135.382 201.363 132.811 192.494 127.036" fill="white"/>
<path d="M12.0684 111.676C16.1302 107.647 18.0856 103.867 19.1237 101.123C20.7867 96.72 20.0913 94.9644 22.1474 89.6112C23.9516 84.9199 26.2798 81.6101 27.3785 80.1615C28.9508 78.0797 32.4482 73.5515 38.7779 70.0306C44.9362 66.6057 50.4393 65.8094 57.4342 65.6272C65.2656 65.4257 66.7372 66.3946 71.5449 65.6272C75.9494 64.9268 79.1546 63.3055 83.8817 61.003C87.3791 59.305 86.3913 59.4585 92.7109 56.0335C100.794 51.6493 104.826 50.0759 107.9 49.0686C108.041 49.0206 109.896 48.3107 112.133 47.8118C127.715 44.3389 146.12 44.1567 161.914 46.3728C162.579 46.4687 163.244 46.5647 163.919 46.6798C179.552 49.1933 190.639 56.8874 194.852 60.0916C205.889 68.4765 211.11 78.1756 218.941 92.7003C224.273 102.582 224.132 103.618 227.367 109.23C231.278 116.003 239.21 124.446 257 130.864C256.617 131.343 256.103 131.9 255.427 132.437C254.268 133.368 253.099 133.866 252.272 134.145C253.724 135.248 255.165 136.351 256.617 137.454C252.393 137.944 246.427 138.471 239.24 138.529C230.461 138.606 223.265 138.663 214.668 136.629C209.396 135.382 201.363 132.811 192.494 127.036" stroke="#3A4559" stroke-width="4" stroke-linecap="round" stroke-linejoin="round"/>
<path d="M102.662 92.5811C102.279 94.5958 100.384 95.9677 98.8422 97.3875C97.2901 98.8074 95.8891 100.918 96.766 102.789C97.4009 104.141 99.0539 104.823 100.606 104.938C102.158 105.053 103.71 104.736 105.273 104.717C108.246 104.669 111.219 105.744 113.417 107.633C114.828 108.842 115.14 109.418 116.722 110.099C117.337 110.368 118.92 111.02 120.966 110.742C121.641 110.646 123.586 110.387 124.796 109.005C126.469 107.106 126.106 103.825 124.725 101.753C123.062 99.2678 119.303 98.6635 117.62 96.1883C116.41 94.4039 116.591 92.1206 116.168 90.0292C115.684 87.6116 114.213 85.2612 111.885 84.1867C109.647 83.1602 106.23 83.6878 104.537 85.5106C102.733 87.4581 103.106 90.2595 102.652 92.5811H102.662Z" fill="#56647E"/>
<path d="M90.3832 70.3087C88.71 69.7715 86.9462 69.263 85.0917 68.8025C78.9233 67.2579 73.1782 66.548 68.1387 66.2986" stroke="#3A4559" stroke-width="4" stroke-linecap="round" stroke-linejoin="round"/>
<path d="M82.9854 75.0673C86.0796 72.0165 90.6051 70.6159 95.0399 70.2609C99.4747 69.906 103.93 70.4912 108.375 70.8173C110.753 70.99 113.132 71.0956 115.51 71.1339C113.283 73.6666 112.225 76.9381 110.4 79.749C106.722 85.3996 99.9283 88.8917 92.9737 89.5057" stroke="#3A4559" stroke-width="4" stroke-linecap="round" stroke-linejoin="round"/>
<path d="M172.588 49.6033C170.225 51.7708 170.526 55.5328 170.872 58.7506C171.217 61.9589 171.072 65.8737 168.331 67.5255C166.96 68.3562 165.255 68.3658 163.661 68.2321C158.502 67.7929 153.453 66.0742 149.085 63.267C145.084 60.6985 141.373 57.1179 136.659 56.6022C130.285 55.8957 124.311 61.09 117.948 60.2688C114.939 59.8773 112.22 58.1491 110.114 55.9434C108.632 54.4061 107.35 52.0668 108.42 50.2144C108.353 50.0139 108.308 49.9471 108.308 49.9471V49.9566C108.331 49.9852 117.58 47.6364 119.475 47.1971C122.551 46.481 124.947 46.5956 129.727 46.4906C143.947 46.1564 158.803 46.0418 172.588 49.6129V49.6033Z" fill="#56647E"/>
<path d="M87.4805 82.8093C91.4315 79.9984 96.219 78.2715 101.128 77.8782" stroke="#3A4559" stroke-width="4" stroke-linecap="round" stroke-linejoin="round"/>
<path d="M81.1132 69.3358C80.5252 71.4932 79.638 73.5825 78.4619 75.5164C77.5128 77.081 76.0685 78.7039 74.1601 78.665C73.1388 78.6456 72.2206 78.1402 71.2612 77.8293C69.0948 77.1393 66.5983 77.4989 64.7414 78.7525C63.5447 79.5688 63.555 79.7534 62.4925 80.3754C59.8928 81.8719 55.7045 81.8719 53.0326 80.1616C49.5767 77.9459 51.186 74.4863 47.8745 72.3872C44.4598 70.2298 39.766 72.0277 39.6216 71.4154C39.5081 70.9295 42.2476 69.3729 46.663 68.2651C49.9229 67.4488 56.8805 66.3038 66.9594 67.0424C70.5597 67.3047 75.4393 67.9072 81.1235 69.3358H81.1132Z" fill="#56647E"/>
<path d="M23.4082 124.724C25.9078 126.182 29.7681 128.149 34.7875 129.511C41.3187 131.276 45.8543 130.95 53.4942 131.305C62.3839 131.717 65.1456 132.581 73.0073 133.387C81.5745 134.26 94.2841 134.864 111.479 133.358C120.52 132.562 129.51 133.454 138.521 134.509C148.187 135.641 157.984 135.018 167.7 134.394C178.354 133.713 188.997 133.032 199.651 132.351" fill="white"/>
<path d="M23.4082 124.724C25.9078 126.182 29.7681 128.149 34.7875 129.511C41.3187 131.276 45.8543 130.95 53.4942 131.305C62.3839 131.717 65.1456 132.581 73.0073 133.387C81.5745 134.26 94.2841 134.864 111.479 133.358C120.52 132.562 129.51 133.454 138.521 134.509C148.187 135.641 157.984 135.018 167.7 134.394C178.354 133.713 188.997 133.032 199.651 132.351" stroke="#3A4559" stroke-width="4" stroke-linecap="round" stroke-linejoin="round"/>
<path d="M200.316 95.329C198.552 86.3398 189.793 80.9674 182.375 79.701C175.924 78.6073 166.873 80.008 163.668 85.1502C161.904 87.9803 163.094 90.0525 160.322 93.4774C157.651 96.7776 153.861 98.1879 152.773 98.5716C152.158 98.7923 151.916 98.8115 151.231 98.965C151.231 98.965 150.989 99.0129 150.223 99.224C149.547 99.4063 145.717 100.557 144.115 101.383C141.182 102.879 138.591 106.86 137.775 110.477C136.273 117.145 141.01 121.577 142.442 122.939C143.903 124.311 147.29 127.391 152.158 127.026C159.405 126.479 163.789 118.709 170.865 117.154C174.201 116.425 174.584 117.068 182.667 115.811C187.959 114.986 190.609 114.574 192.172 113.787C197.957 110.861 201.807 102.85 200.326 95.3194L200.316 95.329Z" fill="#56647E"/>
<path d="M240.249 136.841C239.332 135.152 236.993 131.43 232.508 129.895C230.805 129.31 229.252 129.204 227.62 129.233C220.332 129.386 211.521 131.199 207.56 133.08C208.712 133.446 211.018 134.544 212.556 134.91C213.855 135.219 213.903 135.384 214.861 135.642C218.515 136.624 222.163 137.106 226.279 137.656C227.771 137.781 229.424 137.857 231.661 137.8C235.129 137.704 238.051 137.272 240.259 136.831L240.249 136.841Z" fill="#58657B"/>
<path d="M43.4274 120.723C44.355 115.569 37.6836 110.18 28.5265 108.687C19.3694 107.194 11.1941 110.162 10.2665 115.317C9.33888 120.471 16.0102 125.86 25.1674 127.353C34.3245 128.846 42.4998 125.878 43.4274 120.723Z" fill="#E2B1D2" stroke="#3A4559" stroke-width="4" stroke-linecap="round" stroke-linejoin="round"/>
<path d="M107.82 119.351C108.879 123.736 111.237 131.008 116.891 138.539C122.546 146.07 129.006 150.559 133.018 152.929L134.187 147.902C135.628 148.612 136.999 149.437 138.299 150.367C136.546 142.27 134.782 134.164 133.028 126.067" fill="white"/>
<path d="M107.82 119.351C108.879 123.736 111.237 131.008 116.891 138.539C122.546 146.07 129.006 150.559 133.018 152.929L134.187 147.902C135.628 148.612 136.999 149.437 138.299 150.367C136.546 142.27 134.782 134.164 133.028 126.067" stroke="#3A4559" stroke-width="4" stroke-linecap="round" stroke-linejoin="round"/>
<path d="M61.8303 104.883C62.6434 102.488 61.6924 100.051 59.7061 99.4404C57.7198 98.8294 55.4504 100.275 54.6373 102.67C53.8242 105.065 54.7752 107.502 56.7615 108.113C58.7478 108.724 61.0172 107.278 61.8303 104.883Z" fill="#3B4559"/>
<path d="M35.5666 99.4061C36.3797 97.0113 35.4287 94.5746 33.4424 93.9636C31.4561 93.3526 29.1868 94.7986 28.3736 97.1934C27.5605 99.5882 28.5116 102.025 30.4979 102.636C32.4841 103.247 34.7535 101.801 35.5666 99.4061Z" fill="#3B4559"/>
<path d="M33.4005 119.48C33.7041 117.793 32.9939 116.27 31.8143 116.077C30.6347 115.885 29.4323 117.097 29.1287 118.783C28.8252 120.47 29.5354 121.994 30.715 122.186C31.8946 122.378 33.097 121.167 33.4005 119.48Z" fill="#9F567F"/>
<path d="M23.2443 117.222C23.5478 115.535 22.8376 114.012 21.658 113.82C20.4784 113.627 19.2761 114.839 18.9725 116.526C18.6689 118.213 19.3791 119.736 20.5587 119.928C21.7384 120.121 22.9407 118.909 23.2443 117.222Z" fill="#9F567F"/>
</svg>
