<svg width="44" height="26" viewBox="0 0 44 26" fill="none" xmlns="http://www.w3.org/2000/svg">
<path d="M41.5224 24.6346C41.7824 22.8146 42.0024 20.0046 41.5224 16.6346C41.1024 13.7246 40.6024 10.2046 38.0024 6.97456C36.8124 5.49456 34.3824 2.47456 30.7724 2.32456C27.0324 2.16456 23.2824 5.08456 21.4724 9.55456C21.2724 6.54456 19.5724 3.89456 16.9724 2.67456C13.9124 1.23456 10.9324 2.49456 10.1024 2.84456C7.03243 4.14456 5.59243 6.71456 4.51243 8.63456C2.53243 12.1646 2.26243 15.5046 2.07243 18.1046C1.85243 21.2446 2.17243 23.8546 2.51243 25.6346" stroke="#FCFCFC" stroke-width="4" stroke-linejoin="round"/>
<path d="M14.132 22.3647C16.8271 22.3647 19.012 20.1799 19.012 17.4847C19.012 14.7896 16.8271 12.6047 14.132 12.6047C11.4368 12.6047 9.25195 14.7896 9.25195 17.4847C9.25195 20.1799 11.4368 22.3647 14.132 22.3647Z" stroke="#FCFCFC" stroke-width="4" stroke-linecap="round" stroke-linejoin="round"/>
<path d="M29.8917 22.3647C32.5869 22.3647 34.7717 20.1799 34.7717 17.4847C34.7717 14.7896 32.5869 12.6047 29.8917 12.6047C27.1966 12.6047 25.0117 14.7896 25.0117 17.4847C25.0117 20.1799 27.1966 22.3647 29.8917 22.3647Z" stroke="#FCFCFC" stroke-width="4" stroke-linecap="round" stroke-linejoin="round"/>
</svg>
