<svg width="310" height="55" viewBox="0 0 310 55" fill="none" xmlns="http://www.w3.org/2000/svg">
<rect x="0.5" y="0.5" width="309" height="54" rx="9.5" fill="white" stroke="#282830"/>
<path d="M90.0332 30.7041C90.0332 30.4404 89.9922 30.2061 89.9102 30.001C89.834 29.7959 89.6963 29.6084 89.4971 29.4385C89.2979 29.2686 89.0166 29.1045 88.6533 28.9463C88.2959 28.7822 87.8389 28.6152 87.2822 28.4453C86.6729 28.2578 86.1104 28.0498 85.5947 27.8213C85.085 27.5869 84.6396 27.3174 84.2588 27.0127C83.8779 26.7021 83.582 26.3477 83.3711 25.9492C83.1602 25.5449 83.0547 25.0791 83.0547 24.5518C83.0547 24.0303 83.1631 23.5557 83.3799 23.1279C83.6025 22.7002 83.916 22.3311 84.3203 22.0205C84.7305 21.7041 85.2139 21.4609 85.7705 21.291C86.3271 21.1152 86.9424 21.0273 87.6162 21.0273C88.5654 21.0273 89.3828 21.2031 90.0684 21.5547C90.7598 21.9062 91.29 22.3779 91.6592 22.9697C92.0342 23.5615 92.2217 24.2148 92.2217 24.9297H90.0332C90.0332 24.5078 89.9424 24.1357 89.7607 23.8135C89.585 23.4854 89.3154 23.2275 88.9521 23.04C88.5947 22.8525 88.1406 22.7588 87.5898 22.7588C87.0684 22.7588 86.6348 22.8379 86.2891 22.9961C85.9434 23.1543 85.6855 23.3682 85.5156 23.6377C85.3457 23.9072 85.2607 24.2119 85.2607 24.5518C85.2607 24.792 85.3164 25.0117 85.4277 25.2109C85.5391 25.4043 85.709 25.5859 85.9375 25.7559C86.166 25.9199 86.4531 26.0752 86.7988 26.2217C87.1445 26.3682 87.5518 26.5088 88.0205 26.6436C88.7295 26.8545 89.3477 27.0889 89.875 27.3467C90.4023 27.5986 90.8418 27.8857 91.1934 28.208C91.5449 28.5303 91.8086 28.8965 91.9844 29.3066C92.1602 29.7109 92.248 30.1709 92.248 30.6865C92.248 31.2256 92.1396 31.7119 91.9229 32.1455C91.7061 32.5732 91.3955 32.9395 90.9912 33.2441C90.5928 33.543 90.1123 33.7744 89.5498 33.9385C88.9932 34.0967 88.3721 34.1758 87.6865 34.1758C87.0713 34.1758 86.4648 34.0938 85.8672 33.9297C85.2754 33.7656 84.7363 33.5166 84.25 33.1826C83.7637 32.8428 83.377 32.4209 83.0898 31.917C82.8027 31.4072 82.6592 30.8125 82.6592 30.1328H84.8652C84.8652 30.5488 84.9355 30.9033 85.0762 31.1963C85.2227 31.4893 85.4248 31.7295 85.6826 31.917C85.9404 32.0986 86.2393 32.2334 86.5791 32.3213C86.9248 32.4092 87.2939 32.4531 87.6865 32.4531C88.2021 32.4531 88.6328 32.3799 88.9785 32.2334C89.3301 32.0869 89.5938 31.8818 89.7695 31.6182C89.9453 31.3545 90.0332 31.0498 90.0332 30.7041ZM97.3359 24.4902V34H95.2089V24.4902H97.3359ZM95.0683 21.9941C95.0683 21.6719 95.1737 21.4053 95.3847 21.1943C95.6015 20.9775 95.9003 20.8691 96.2812 20.8691C96.6562 20.8691 96.9521 20.9775 97.1689 21.1943C97.3857 21.4053 97.4941 21.6719 97.4941 21.9941C97.4941 22.3105 97.3857 22.5742 97.1689 22.7852C96.9521 22.9961 96.6562 23.1016 96.2812 23.1016C95.9003 23.1016 95.6015 22.9961 95.3847 22.7852C95.1737 22.5742 95.0683 22.3105 95.0683 21.9941ZM106.827 24.4902H108.752V33.7363C108.752 34.5918 108.57 35.3184 108.207 35.916C107.844 36.5137 107.337 36.9678 106.686 37.2783C106.036 37.5947 105.283 37.7529 104.428 37.7529C104.064 37.7529 103.66 37.7002 103.215 37.5947C102.775 37.4893 102.347 37.3193 101.931 37.085C101.521 36.8564 101.179 36.5547 100.903 36.1797L101.896 34.9316C102.236 35.3359 102.611 35.6318 103.021 35.8193C103.431 36.0068 103.862 36.1006 104.313 36.1006C104.8 36.1006 105.213 36.0098 105.553 35.8281C105.898 35.6523 106.165 35.3916 106.352 35.0459C106.54 34.7002 106.634 34.2783 106.634 33.7803V26.6436L106.827 24.4902ZM100.367 29.3506V29.166C100.367 28.4453 100.455 27.7891 100.631 27.1973C100.806 26.5996 101.058 26.0869 101.387 25.6592C101.715 25.2256 102.113 24.8945 102.582 24.666C103.051 24.4316 103.581 24.3145 104.173 24.3145C104.788 24.3145 105.312 24.4258 105.746 24.6484C106.185 24.8711 106.552 25.1904 106.845 25.6064C107.138 26.0166 107.366 26.5088 107.53 27.083C107.7 27.6514 107.826 28.2842 107.908 28.9814V29.5703C107.832 30.25 107.703 30.8711 107.521 31.4336C107.34 31.9961 107.099 32.4824 106.801 32.8926C106.502 33.3027 106.133 33.6191 105.693 33.8418C105.26 34.0645 104.747 34.1758 104.155 34.1758C103.575 34.1758 103.051 34.0557 102.582 33.8154C102.119 33.5752 101.721 33.2383 101.387 32.8047C101.058 32.3711 100.806 31.8613 100.631 31.2754C100.455 30.6836 100.367 30.042 100.367 29.3506ZM102.485 29.166V29.3506C102.485 29.7842 102.526 30.1885 102.608 30.5635C102.696 30.9385 102.828 31.2695 103.004 31.5566C103.185 31.8379 103.414 32.0605 103.689 32.2246C103.971 32.3828 104.302 32.4619 104.682 32.4619C105.181 32.4619 105.588 32.3564 105.904 32.1455C106.226 31.9346 106.472 31.6504 106.642 31.293C106.818 30.9297 106.941 30.5254 107.012 30.0801V28.4893C106.976 28.1436 106.903 27.8213 106.792 27.5225C106.686 27.2236 106.543 26.9629 106.361 26.7402C106.18 26.5117 105.951 26.3359 105.676 26.2129C105.4 26.084 105.075 26.0195 104.7 26.0195C104.319 26.0195 103.988 26.1016 103.707 26.2656C103.426 26.4297 103.194 26.6553 103.013 26.9424C102.837 27.2295 102.705 27.5635 102.617 27.9443C102.529 28.3252 102.485 28.7324 102.485 29.166ZM114.13 26.5205V34H112.011V24.4902H114.007L114.13 26.5205ZM113.752 28.8936L113.066 28.8848C113.072 28.2109 113.166 27.5928 113.347 27.0303C113.535 26.4678 113.793 25.9844 114.121 25.5801C114.455 25.1758 114.853 24.8652 115.316 24.6484C115.779 24.4258 116.295 24.3145 116.863 24.3145C117.32 24.3145 117.733 24.3789 118.102 24.5078C118.477 24.6309 118.797 24.833 119.06 25.1143C119.33 25.3955 119.535 25.7617 119.676 26.2129C119.816 26.6582 119.886 27.2061 119.886 27.8564V34H117.76V27.8477C117.76 27.3906 117.692 27.0303 117.557 26.7666C117.428 26.4971 117.238 26.3066 116.986 26.1953C116.74 26.0781 116.432 26.0195 116.063 26.0195C115.7 26.0195 115.375 26.0957 115.088 26.248C114.801 26.4004 114.557 26.6084 114.358 26.8721C114.165 27.1357 114.015 27.4404 113.91 27.7861C113.804 28.1318 113.752 28.501 113.752 28.8936ZM131.257 21.2031V34H129.051V21.2031H131.257ZM136.969 26.5205V34H134.851V24.4902H136.846L136.969 26.5205ZM136.591 28.8936L135.906 28.8848C135.912 28.2109 136.005 27.5928 136.187 27.0303C136.375 26.4678 136.632 25.9844 136.96 25.5801C137.294 25.1758 137.693 24.8652 138.156 24.6484C138.619 24.4258 139.134 24.3145 139.703 24.3145C140.16 24.3145 140.573 24.3789 140.942 24.5078C141.317 24.6309 141.636 24.833 141.9 25.1143C142.169 25.3955 142.375 25.7617 142.515 26.2129C142.656 26.6582 142.726 27.2061 142.726 27.8564V34H140.599V27.8477C140.599 27.3906 140.532 27.0303 140.397 26.7666C140.268 26.4971 140.078 26.3066 139.826 26.1953C139.58 26.0781 139.272 26.0195 138.903 26.0195C138.54 26.0195 138.214 26.0957 137.927 26.248C137.64 26.4004 137.397 26.6084 137.198 26.8721C137.004 27.1357 136.855 27.4404 136.75 27.7861C136.644 28.1318 136.591 28.501 136.591 28.8936ZM154.95 31.126L157.498 21.2031H158.834L158.685 23.7607L155.96 34H154.572L154.95 31.126ZM153.042 21.2031L155.108 31.0469L155.292 34H153.816L150.854 21.2031H153.042ZM161.726 31.0205L163.765 21.2031H165.962L163 34H161.524L161.726 31.0205ZM159.353 21.2031L161.875 31.1523L162.244 34H160.856L158.175 23.7607L158.035 21.2031H159.353ZM170.734 24.4902V34H168.607V24.4902H170.734ZM168.466 21.9941C168.466 21.6719 168.572 21.4053 168.783 21.1943C168.999 20.9775 169.298 20.8691 169.679 20.8691C170.054 20.8691 170.35 20.9775 170.567 21.1943C170.783 21.4053 170.892 21.6719 170.892 21.9941C170.892 22.3105 170.783 22.5742 170.567 22.7852C170.35 22.9961 170.054 23.1016 169.679 23.1016C169.298 23.1016 168.999 22.9961 168.783 22.7852C168.572 22.5742 168.466 22.3105 168.466 21.9941ZM178.493 24.4902V26.0371H173.132V24.4902H178.493ZM174.679 22.1611H176.797V31.3721C176.797 31.665 176.838 31.8906 176.92 32.0488C177.008 32.2012 177.128 32.3037 177.28 32.3564C177.433 32.4092 177.612 32.4355 177.817 32.4355C177.963 32.4355 178.104 32.4268 178.238 32.4092C178.373 32.3916 178.482 32.374 178.564 32.3564L178.572 33.9736C178.397 34.0264 178.192 34.0732 177.957 34.1143C177.729 34.1553 177.465 34.1758 177.166 34.1758C176.68 34.1758 176.249 34.0908 175.874 33.9209C175.499 33.7451 175.206 33.4609 174.995 33.0684C174.784 32.6758 174.679 32.1543 174.679 31.5039V22.1611ZM183.3 20.5V34H181.191V20.5H183.3ZM182.931 28.8936L182.245 28.8848C182.251 28.2285 182.342 27.6221 182.518 27.0654C182.699 26.5088 182.951 26.0254 183.274 25.6152C183.602 25.1992 183.994 24.8799 184.451 24.6572C184.908 24.4287 185.415 24.3145 185.972 24.3145C186.441 24.3145 186.862 24.3789 187.237 24.5078C187.618 24.6367 187.946 24.8447 188.222 25.1318C188.497 25.4131 188.705 25.7822 188.846 26.2393C188.992 26.6904 189.066 27.2412 189.066 27.8916V34H186.939V27.874C186.939 27.417 186.871 27.0537 186.736 26.7842C186.608 26.5146 186.417 26.3213 186.165 26.2041C185.913 26.0811 185.606 26.0195 185.242 26.0195C184.861 26.0195 184.525 26.0957 184.232 26.248C183.944 26.4004 183.704 26.6084 183.511 26.8721C183.317 27.1357 183.171 27.4404 183.071 27.7861C182.978 28.1318 182.931 28.501 182.931 28.8936ZM207.89 27.4609V32.3477C207.708 32.5879 207.424 32.8516 207.037 33.1387C206.656 33.4199 206.149 33.6631 205.517 33.8682C204.884 34.0732 204.096 34.1758 203.152 34.1758C202.35 34.1758 201.614 34.041 200.946 33.7715C200.278 33.4961 199.701 33.0947 199.215 32.5674C198.734 32.04 198.362 31.3984 198.099 30.6426C197.835 29.8809 197.703 29.0137 197.703 28.041V27.1533C197.703 26.1865 197.823 25.3252 198.063 24.5693C198.31 23.8076 198.661 23.1631 199.118 22.6357C199.575 22.1084 200.126 21.71 200.77 21.4404C201.421 21.165 202.156 21.0273 202.977 21.0273C204.025 21.0273 204.893 21.2031 205.578 21.5547C206.269 21.9004 206.803 22.3809 207.178 22.9961C207.553 23.6113 207.79 24.3145 207.89 25.1055H205.728C205.657 24.6602 205.519 24.2617 205.314 23.9102C205.115 23.5586 204.828 23.2832 204.453 23.084C204.084 22.8789 203.603 22.7764 203.012 22.7764C202.502 22.7764 202.054 22.873 201.667 23.0664C201.28 23.2598 200.958 23.5439 200.7 23.9189C200.448 24.2939 200.258 24.751 200.129 25.29C200 25.8291 199.936 26.4443 199.936 27.1357V28.041C199.936 28.7441 200.009 29.3682 200.155 29.9131C200.308 30.458 200.524 30.918 200.806 31.293C201.093 31.668 201.441 31.9521 201.852 32.1455C202.262 32.333 202.725 32.4268 203.24 32.4268C203.744 32.4268 204.157 32.3857 204.479 32.3037C204.802 32.2158 205.057 32.1133 205.244 31.9961C205.437 31.873 205.587 31.7559 205.692 31.6445V29.1045H203.029V27.4609H207.89ZM210.798 29.3506V29.1484C210.798 28.4629 210.897 27.8271 211.097 27.2412C211.296 26.6494 211.583 26.1367 211.958 25.7031C212.339 25.2637 212.802 24.9238 213.347 24.6836C213.897 24.4375 214.518 24.3145 215.21 24.3145C215.907 24.3145 216.528 24.4375 217.073 24.6836C217.624 24.9238 218.09 25.2637 218.471 25.7031C218.851 26.1367 219.141 26.6494 219.341 27.2412C219.54 27.8271 219.64 28.4629 219.64 29.1484V29.3506C219.64 30.0361 219.54 30.6719 219.341 31.2578C219.141 31.8438 218.851 32.3564 218.471 32.7959C218.09 33.2295 217.627 33.5693 217.082 33.8154C216.537 34.0557 215.919 34.1758 215.227 34.1758C214.53 34.1758 213.906 34.0557 213.355 33.8154C212.81 33.5693 212.348 33.2295 211.967 32.7959C211.586 32.3564 211.296 31.8438 211.097 31.2578C210.897 30.6719 210.798 30.0361 210.798 29.3506ZM212.916 29.1484V29.3506C212.916 29.7783 212.96 30.1826 213.048 30.5635C213.136 30.9443 213.273 31.2783 213.461 31.5654C213.648 31.8525 213.889 32.0781 214.182 32.2422C214.474 32.4062 214.823 32.4883 215.227 32.4883C215.62 32.4883 215.96 32.4062 216.247 32.2422C216.54 32.0781 216.78 31.8525 216.968 31.5654C217.155 31.2783 217.293 30.9443 217.381 30.5635C217.474 30.1826 217.521 29.7783 217.521 29.3506V29.1484C217.521 28.7266 217.474 28.3281 217.381 27.9531C217.293 27.5723 217.152 27.2354 216.959 26.9424C216.771 26.6494 216.531 26.4209 216.238 26.2568C215.951 26.0869 215.608 26.002 215.21 26.002C214.811 26.002 214.466 26.0869 214.173 26.2568C213.886 26.4209 213.648 26.6494 213.461 26.9424C213.273 27.2354 213.136 27.5723 213.048 27.9531C212.96 28.3281 212.916 28.7266 212.916 29.1484ZM222.091 29.3506V29.1484C222.091 28.4629 222.19 27.8271 222.389 27.2412C222.589 26.6494 222.876 26.1367 223.251 25.7031C223.632 25.2637 224.095 24.9238 224.639 24.6836C225.19 24.4375 225.811 24.3145 226.503 24.3145C227.2 24.3145 227.821 24.4375 228.366 24.6836C228.917 24.9238 229.383 25.2637 229.763 25.7031C230.144 26.1367 230.434 26.6494 230.634 27.2412C230.833 27.8271 230.932 28.4629 230.932 29.1484V29.3506C230.932 30.0361 230.833 30.6719 230.634 31.2578C230.434 31.8438 230.144 32.3564 229.763 32.7959C229.383 33.2295 228.92 33.5693 228.375 33.8154C227.83 34.0557 227.212 34.1758 226.52 34.1758C225.823 34.1758 225.199 34.0557 224.648 33.8154C224.103 33.5693 223.64 33.2295 223.26 32.7959C222.879 32.3564 222.589 31.8438 222.389 31.2578C222.19 30.6719 222.091 30.0361 222.091 29.3506ZM224.209 29.1484V29.3506C224.209 29.7783 224.253 30.1826 224.341 30.5635C224.429 30.9443 224.566 31.2783 224.754 31.5654C224.941 31.8525 225.181 32.0781 225.474 32.2422C225.767 32.4062 226.116 32.4883 226.52 32.4883C226.913 32.4883 227.253 32.4062 227.54 32.2422C227.833 32.0781 228.073 31.8525 228.261 31.5654C228.448 31.2783 228.586 30.9443 228.674 30.5635C228.767 30.1826 228.814 29.7783 228.814 29.3506V29.1484C228.814 28.7266 228.767 28.3281 228.674 27.9531C228.586 27.5723 228.445 27.2354 228.252 26.9424C228.064 26.6494 227.824 26.4209 227.531 26.2568C227.244 26.0869 226.901 26.002 226.503 26.002C226.104 26.002 225.759 26.0869 225.466 26.2568C225.179 26.4209 224.941 26.6494 224.754 26.9424C224.566 27.2354 224.429 27.5723 224.341 27.9531C224.253 28.3281 224.209 28.7266 224.209 29.1484ZM239.879 24.4902H241.803V33.7363C241.803 34.5918 241.622 35.3184 241.259 35.916C240.895 36.5137 240.388 36.9678 239.738 37.2783C239.088 37.5947 238.335 37.7529 237.479 37.7529C237.116 37.7529 236.712 37.7002 236.266 37.5947C235.827 37.4893 235.399 37.3193 234.983 37.085C234.573 36.8564 234.23 36.5547 233.955 36.1797L234.948 34.9316C235.288 35.3359 235.663 35.6318 236.073 35.8193C236.483 36.0068 236.914 36.1006 237.365 36.1006C237.851 36.1006 238.264 36.0098 238.604 35.8281C238.95 35.6523 239.217 35.3916 239.404 35.0459C239.592 34.7002 239.685 34.2783 239.685 33.7803V26.6436L239.879 24.4902ZM233.419 29.3506V29.166C233.419 28.4453 233.507 27.7891 233.682 27.1973C233.858 26.5996 234.11 26.0869 234.438 25.6592C234.766 25.2256 235.165 24.8945 235.634 24.666C236.102 24.4316 236.633 24.3145 237.224 24.3145C237.84 24.3145 238.364 24.4258 238.798 24.6484C239.237 24.8711 239.603 25.1904 239.896 25.6064C240.189 26.0166 240.418 26.5088 240.582 27.083C240.752 27.6514 240.878 28.2842 240.96 28.9814V29.5703C240.884 30.25 240.755 30.8711 240.573 31.4336C240.391 31.9961 240.151 32.4824 239.852 32.8926C239.553 33.3027 239.184 33.6191 238.745 33.8418C238.311 34.0645 237.799 34.1758 237.207 34.1758C236.627 34.1758 236.102 34.0557 235.634 33.8154C235.171 33.5752 234.772 33.2383 234.438 32.8047C234.11 32.3711 233.858 31.8613 233.682 31.2754C233.507 30.6836 233.419 30.042 233.419 29.3506ZM235.537 29.166V29.3506C235.537 29.7842 235.578 30.1885 235.66 30.5635C235.748 30.9385 235.88 31.2695 236.055 31.5566C236.237 31.8379 236.466 32.0605 236.741 32.2246C237.022 32.3828 237.353 32.4619 237.734 32.4619C238.232 32.4619 238.639 32.3564 238.956 32.1455C239.278 31.9346 239.524 31.6504 239.694 31.293C239.87 30.9297 239.993 30.5254 240.063 30.0801V28.4893C240.028 28.1436 239.955 27.8213 239.843 27.5225C239.738 27.2236 239.594 26.9629 239.413 26.7402C239.231 26.5117 239.003 26.3359 238.727 26.2129C238.452 26.084 238.127 26.0195 237.752 26.0195C237.371 26.0195 237.04 26.1016 236.759 26.2656C236.477 26.4297 236.246 26.6553 236.064 26.9424C235.888 27.2295 235.757 27.5635 235.669 27.9443C235.581 28.3252 235.537 28.7324 235.537 29.166ZM247.348 20.5V34H245.221V20.5H247.348ZM254.941 34.1758C254.238 34.1758 253.602 34.0615 253.034 33.833C252.471 33.5986 251.991 33.2734 251.592 32.8574C251.2 32.4414 250.898 31.9521 250.687 31.3896C250.476 30.8271 250.371 30.2207 250.371 29.5703V29.2188C250.371 28.4746 250.479 27.8008 250.696 27.1973C250.913 26.5938 251.214 26.0781 251.601 25.6504C251.988 25.2168 252.445 24.8857 252.972 24.6572C253.5 24.4287 254.071 24.3145 254.686 24.3145C255.366 24.3145 255.961 24.4287 256.47 24.6572C256.98 24.8857 257.402 25.208 257.736 25.624C258.076 26.0342 258.328 26.5234 258.492 27.0918C258.662 27.6602 258.747 28.2871 258.747 28.9727V29.8779H251.399V28.3574H256.655V28.1904C256.643 27.8096 256.567 27.4521 256.426 27.1182C256.292 26.7842 256.084 26.5146 255.802 26.3096C255.521 26.1045 255.146 26.002 254.677 26.002C254.326 26.002 254.012 26.0781 253.737 26.2305C253.467 26.377 253.242 26.5908 253.06 26.8721C252.878 27.1533 252.738 27.4932 252.638 27.8916C252.544 28.2842 252.498 28.7266 252.498 29.2188V29.5703C252.498 29.9863 252.553 30.373 252.665 30.7305C252.782 31.082 252.952 31.3896 253.174 31.6533C253.397 31.917 253.667 32.125 253.983 32.2773C254.299 32.4238 254.66 32.4971 255.064 32.4971C255.574 32.4971 256.028 32.3945 256.426 32.1895C256.825 31.9844 257.17 31.6943 257.463 31.3193L258.58 32.4004C258.375 32.6992 258.108 32.9863 257.78 33.2617C257.452 33.5312 257.05 33.751 256.576 33.9209C256.107 34.0908 255.562 34.1758 254.941 34.1758Z" fill="#282830"/>
<path d="M49.2656 24.8535V29.9909H56.4048C56.0913 31.643 55.1506 33.042 53.7396 33.9826L58.0449 37.3231C60.5532 35.0078 62.0004 31.607 62.0004 27.567C62.0004 26.6264 61.916 25.7219 61.7592 24.8537L49.2656 24.8535Z" fill="#4285F4"/>
<path d="M41.8313 29.7904L40.8604 30.5337L37.4233 33.2109C39.6061 37.5402 44.0799 40.531 49.2654 40.531C52.847 40.531 55.8498 39.3491 58.0446 37.3232L53.7394 33.9827C52.5576 34.7786 51.0501 35.261 49.2654 35.261C45.8164 35.261 42.886 32.9336 41.8368 29.7981L41.8313 29.7904Z" fill="#34A853"/>
<path d="M49.2657 19.2821C51.2193 19.2821 52.9559 19.9574 54.3427 21.2598L58.1414 17.4611C55.8381 15.3146 52.8474 14 49.2657 14C44.0801 14 39.6061 16.9787 37.4233 21.3201L41.8371 24.745C42.8862 21.6095 45.8167 19.2821 49.2657 19.2821Z" fill="#EA4335"/>
</svg>
